<?xml version="1.0" standalone="no"?>
<!DOCTYPE svg PUBLIC "-//W3C//DTD SVG 1.1//EN" "http://www.w3.org/Graphics/SVG/1.1/DTD/svg11.dtd" >
<svg xmlns="http://www.w3.org/2000/svg">
<metadata>Generated by IcoMoon</metadata>
<defs>
<font id="icomoon" horiz-adv-x="1024">
<font-face units-per-em="1024" ascent="960" descent="-64" />
<missing-glyph horiz-adv-x="1024" />
<glyph unicode="&#x20;" d="" horiz-adv-x="512" />
<glyph unicode="&#xe600;" d="M430.905-19.911v373.988h-374.016v162.219h374.016v374.016h162.162v-374.016h374.044v-162.219h-374.044v-373.988h-162.162z" />
<glyph unicode="&#xe601;" d="M456.090 719.442l-0.052-226.351-226.351-0.052v-104.365h226.351v-226.403h104.365v226.455l226.403-0.052v104.417h-226.403v226.351zM149.927 797.325c-199.66-199.66-199.608-524.485 0-724.145 199.66-199.608 524.433-199.608 724.093 0 199.66 199.66 199.66 524.485 0 724.145-199.556 199.608-524.381 199.608-724.093 0zM807.398 139.854c-162.856-162.856-427.835-162.804-590.691 0.052s-162.856 427.835 0 590.691 427.783 162.856 590.639 0c162.856-162.856 162.908-427.887 0.052-590.743z" />
<glyph unicode="&#xe602;" d="M566.349 156.851c140.006 153.216 280.013 306.432 419.814 459.622 57.651 63.104-35.917 157.184-93.773 93.798-124.544-136.346-249.062-272.666-373.581-409.037-128.87 137.062-257.869 274.074-386.765 411.11-58.65 62.438-152.346-31.59-93.747-93.85 144.742-153.907 289.51-307.738 434.253-461.645 24.038-25.446 70.042-26.138 93.798 0z" />
<glyph unicode="&#xe603;" d="M233.651 380.851c153.216-140.006 306.432-280.013 459.622-419.814 63.104-57.651 157.184 35.917 93.798 93.773-136.346 124.544-272.666 249.062-409.037 373.581 137.037 128.87 274.048 257.869 411.11 386.765 62.438 58.65-31.59 152.346-93.85 93.747-153.907-144.742-307.738-289.51-461.645-434.253-25.446-24.038-26.138-70.042 0-93.798z" />
<glyph unicode="&#xe604;" d="M790.349 380.851c-153.216-140.006-306.432-280.013-459.648-419.814-63.104-57.651-157.158 35.917-93.798 93.773 136.346 124.544 272.691 249.062 409.037 373.581-137.037 128.87-274.048 257.869-411.11 386.765-62.438 58.65 31.616 152.346 93.85 93.747 153.907-144.742 307.763-289.51 461.67-434.253 25.446-24.038 26.138-70.042 0-93.798z" />
<glyph unicode="&#xe605;" d="M566.349 713.549c140.006-153.216 280.013-306.432 419.814-459.622 57.651-63.104-35.917-157.184-93.773-93.798-124.544 136.346-249.062 272.666-373.581 409.037-128.87-137.037-257.869-274.048-386.765-411.11-58.65-62.438-152.346 31.59-93.747 93.85 144.742 153.907 289.51 307.738 434.253 461.645 24.038 25.446 70.042 26.138 93.798 0z" />
<glyph unicode="&#xe606;" d="M512 230.4l-409.6 409.6h819.2l-409.6-409.6z" />
<glyph unicode="&#xe607;" d="M512 640l409.6-409.6h-819.2l409.6 409.6z" />
<glyph unicode="&#xe608;" d="M307.2 435.2l409.6 409.6v-819.2l-409.6 409.6z" />
<glyph unicode="&#xe609;" d="M716.8 435.2l-409.6-409.6v819.2l409.6-409.6z" />
<glyph unicode="&#xe60a;" d="M991.462 804.762c0 22.989-16.102 45.901-38.246 54.528-10.752 4.147-31.693 7.936-51.354-13.619l-382.95-419.251-396.211 421.171c-20.096 21.402-41.344 17.357-52.224 13.056-21.99-8.73-37.939-31.36-37.939-53.862 0-12.928 5.069-24.883 15.078-35.507l434.253-461.67c9.318-9.856 23.373-15.437 38.579-15.283 14.49 0.128 27.802 5.632 36.403 15.13l419.891 459.648c9.754 10.701 14.72 22.707 14.72 35.661zM991.462 516.762c0 22.989-16.102 45.901-38.246 54.528-10.752 4.173-31.693 7.936-51.354-13.619l-382.95-419.251-396.211 421.171c-20.096 21.402-41.344 17.357-52.224 13.056-21.99-8.73-37.939-31.36-37.939-53.862 0-12.954 5.069-24.909 15.078-35.507l434.253-461.696c9.318-9.856 23.373-15.437 38.579-15.283 14.49 0.128 27.802 5.632 36.403 15.13l419.891 459.648c9.754 10.726 14.72 22.733 14.72 35.686z" />
<glyph unicode="&#xe60b;" d="M881.562-44.262c22.989 0 45.901 16.102 54.528 38.246 4.147 10.752 7.936 31.693-13.619 51.354l-419.251 382.95 421.171 396.211c21.402 20.096 17.357 41.344 13.056 52.224-8.73 21.99-31.386 37.939-53.862 37.939-12.928 0-24.883-5.069-35.507-15.078l-461.67-434.253c-9.856-9.318-15.437-23.373-15.283-38.579 0.128-14.49 5.632-27.802 15.13-36.403l459.648-419.891c10.701-9.754 22.707-14.72 35.661-14.72zM593.562-44.262c22.989 0 45.901 16.102 54.528 38.246 4.173 10.752 7.936 31.693-13.619 51.354l-419.251 382.95 421.171 396.211c21.402 20.096 17.357 41.344 13.056 52.224-8.73 21.99-31.36 37.939-53.862 37.939-12.954 0-24.909-5.069-35.507-15.078l-461.67-434.253c-9.856-9.318-15.437-23.373-15.283-38.579 0.128-14.49 5.632-27.802 15.13-36.403l459.648-419.891c10.701-9.754 22.707-14.72 35.661-14.72z" />
<glyph unicode="&#xe60c;" d="M142.438-44.262c-22.989 0-45.901 16.102-54.502 38.246-4.173 10.752-7.936 31.693 13.619 51.354l419.226 382.95-421.171 396.211c-21.402 20.096-17.357 41.344-13.056 52.224 8.73 21.99 31.36 37.939 53.862 37.939 12.928 0 24.883-5.069 35.507-15.078l461.696-434.253c9.856-9.318 15.437-23.373 15.283-38.579-0.128-14.49-5.632-27.802-15.13-36.403l-459.674-419.891c-10.701-9.754-22.707-14.72-35.661-14.72zM430.438-44.262c-22.989 0-45.901 16.102-54.528 38.246-4.173 10.752-7.936 31.693 13.619 51.354l419.251 382.95-421.171 396.211c-21.402 20.096-17.357 41.344-13.056 52.224 8.73 21.99 31.36 37.939 53.862 37.939 12.954 0 24.909-5.069 35.507-15.078l461.696-434.253c9.856-9.318 15.437-23.373 15.283-38.579-0.128-14.49-5.632-27.802-15.13-36.403l-459.674-419.891c-10.701-9.754-22.707-14.72-35.661-14.72z" />
<glyph unicode="&#xe60d;" d="M991.462 65.638c0-22.989-16.102-45.901-38.246-54.528-10.752-4.147-31.693-7.936-51.354 13.619l-382.95 419.251-396.211-421.171c-20.096-21.402-41.344-17.357-52.224-13.056-21.99 8.73-37.939 31.386-37.939 53.862 0 12.928 5.069 24.883 15.078 35.507l434.253 461.67c9.318 9.856 23.373 15.437 38.579 15.283 14.49-0.128 27.802-5.632 36.403-15.13l419.891-459.648c9.754-10.701 14.72-22.707 14.72-35.661zM991.462 353.638c0-22.989-16.102-45.901-38.246-54.528-10.752-4.173-31.693-7.936-51.354 13.619l-382.95 419.251-396.211-421.171c-20.096-21.402-41.344-17.357-52.224-13.056-21.99 8.73-37.939 31.36-37.939 53.862 0 12.954 5.069 24.909 15.078 35.507l434.253 461.67c9.318 9.856 23.373 15.437 38.579 15.283 14.49-0.128 27.802-5.632 36.403-15.13l419.891-459.648c9.754-10.701 14.72-22.707 14.72-35.661z" />
<glyph unicode="&#xe60e;" d="M56.889 498.944l455.111-518.855 455.111 518.855h-227.556v391.367h-455.111v-391.367h-227.556z" />
<glyph unicode="&#xe60f;" d="M127.744 565.049l384.256-412.359 384.284 412.359h-192.171v311.040h-384.256v-311.040h-192.114zM910.222-5.689h-796.444v85.39h796.444v-85.39z" />
<glyph unicode="&#xe610;" d="M575.744 207.644h391.367v455.111h-391.367v227.556l-518.855-455.111 518.855-455.111v227.556z" />
<glyph unicode="&#xe611;" d="M641.849 243.058h311.040v384.256h-311.040v192.171l-412.359-384.284 412.359-384.284v192.142zM156.501 833.422v-796.444h-85.39v796.444h85.39z" />
<glyph unicode="&#xe612;" d="M448.256-19.911l518.855 455.111-518.855 455.111v-227.556h-391.367v-455.111h391.367v-227.556z" />
<glyph unicode="&#xe613;" d="M382.151 50.916l412.359 384.284-412.359 384.284v-192.171h-311.040v-384.256h311.040v-192.142zM952.889 833.422v-796.444h-85.39v796.444h85.39z" />
<glyph unicode="&#xe614;" d="M284.444 371.456v-391.367h455.111v391.367h227.556l-455.111 518.855-455.111-518.855h227.556z" />
<glyph unicode="&#xe615;" d="M319.858 305.351v-311.040h384.256v311.040h192.171l-384.284 412.331-384.256-412.331h192.114zM910.222 790.727h-796.444v85.362h796.444v-85.362z" />
<glyph unicode="&#xe616;" d="M967.111 179.2c0 256-227.214 199.111-227.214 398.222 0 16.498-1.593 30.606-4.466 42.61-14.933 100.466-81.806 181.077-168.448 205.653 0.74 3.527 1.166 7.14 1.166 10.866 0 29.582-25.543 53.788-56.804 53.788s-56.804-24.206-56.804-53.788c0-3.698 0.427-7.339 1.166-10.866-97.166-27.563-169.444-125.582-171.52-243.058-0.057-1.707-0.085-3.442-0.085-5.205 0-199.111-227.214-142.222-227.214-398.222 0-67.755 151.381-124.444 354.105-138.724 19.115-35.954 56.86-60.388 100.352-60.388s81.209 24.434 100.324 60.388c202.695 14.279 354.105 70.969 354.105 138.724 0 0.228-0.028 0.427-0.028 0.597l1.365-0.597zM790.244 131.129c-48.128-12.857-104.875-22.101-165.774-27.25-5.063 58.14-53.76 103.765-113.124 103.765s-108.089-45.625-113.152-103.765c-60.928 5.148-117.646 14.393-165.774 27.25-66.247 17.692-97.906 37.518-109.511 48.071 11.577 10.581 43.264 30.379 109.511 48.071 76.999 20.594 176.043 31.915 278.926 31.915 102.827 0 201.899-11.321 278.926-31.915 66.247-17.692 97.906-37.49 109.511-48.071-11.605-10.553-43.292-30.379-109.54-48.071v0z" />
<glyph unicode="&#xe617;" d="M924.444-19.911h-824.889c-23.552 0-42.667 19.115-42.667 42.667v711.111c0 23.58 19.115 42.667 42.667 42.667h85.333v-42.667c0-54.983 44.544-99.556 99.556-99.556 54.983 0 99.556 44.572 99.556 99.556v42.667h256v-42.667c0-54.983 44.544-99.556 99.556-99.556 54.983 0 99.556 44.572 99.556 99.556v42.667h85.333c23.552 0 42.667-19.086 42.667-42.667v-711.111c0-23.552-19.115-42.667-42.667-42.667zM881.778 548.978h-739.556v-483.556h739.556v483.556zM338.404 254.379c7.396 8.761 16.071 16.839 26.084 24.235 9.984 7.396 20.508 14.905 31.602 22.556 5.66 3.954 11.691 7.936 18.119 12.004 6.428 4.096 12.288 8.59 17.579 13.511 5.291 4.949 9.728 10.496 13.312 16.668 3.556 6.172 5.348 13.17 5.348 21.049 0 12.572-3.641 22.386-10.923 29.383-7.282 7.054-16.583 10.553-27.904 10.553-7.652 0-14.108-1.792-19.428-5.348s-9.557-8.249-12.743-14.052c-3.214-5.803-5.49-12.203-6.855-19.228-1.337-7.026-2.020-13.995-2.020-20.878h-50.29c-0.512 14.82 1.223 28.53 5.177 41.216s9.87 23.808 17.749 33.308c7.879 9.444 17.806 16.868 29.781 22.158 11.947 5.291 25.685 7.936 41.216 7.936 11.833 0 23.125-1.849 33.82-5.547s20.167-9.017 28.274-15.9c8.135-6.884 14.62-15.388 19.456-25.486 4.779-10.098 7.196-21.447 7.196-34.020 0-13.084-2.076-24.292-6.286-33.65-4.181-9.387-9.756-17.721-16.64-24.974-6.912-7.282-14.763-13.852-23.495-19.797-8.761-5.888-17.55-11.776-26.453-17.55-8.875-5.774-17.493-12.004-25.856-18.66-8.391-6.656-15.787-14.421-22.187-23.268h122.396v-45.113h-190.066c0 14.99 2.133 28.075 6.485 39.168 4.324 11.036 10.183 20.964 17.55 29.724zM584.704 234.041c7.652-7.026 17.38-10.553 29.212-10.553 6.884 0 13.113 1.451 18.66 4.267s10.212 6.514 14.052 11.093c3.812 4.551 6.77 9.87 8.875 15.929 2.105 6.002 3.129 12.231 3.129 18.66 0 6.656-0.967 12.942-2.958 18.83-1.963 5.945-4.949 11.122-8.903 15.559s-8.619 7.879-14.023 10.325c-5.433 2.475-11.719 3.726-18.859 3.726-9.387 0-17.038-1.678-22.955-5.006s-11.435-8.562-16.64-15.73h-47.332l25.515 143.104h144.583v-43.264h-106.866l-10.354-58.766 0.74-0.74c7.14 7.14 14.791 12.26 22.926 15.36 8.135 3.044 17.38 4.608 27.733 4.608 12.828 0 24.178-2.332 34.020-7.026s18.176-10.98 24.974-18.859c6.77-7.879 11.947-17.18 15.531-27.904 3.556-10.724 5.348-22.13 5.348-34.19 0-13.34-2.617-25.714-7.765-37.177-5.177-11.463-12.146-21.39-20.878-29.781s-18.916-14.82-30.492-19.399c-11.577-4.58-23.922-6.713-36.978-6.514-12.572 0-24.604 1.678-36.068 5.006s-21.646 8.448-30.521 15.332c-8.875 6.912-15.957 15.502-21.248 25.714s-8.078 22.101-8.306 35.669h52.508c1.252-11.833 5.689-21.248 13.34-28.274zM739.556 691.2c-23.552 0-42.667 19.115-42.667 42.667v113.778c0 23.58 19.115 42.667 42.667 42.667s42.667-19.086 42.667-42.667v-113.778c0-23.552-19.115-42.667-42.667-42.667zM284.444 691.2c-23.552 0-42.667 19.115-42.667 42.667v113.778c0 23.58 19.115 42.667 42.667 42.667s42.667-19.086 42.667-42.667v-113.778c0-23.552-19.115-42.667-42.667-42.667z" />
<glyph unicode="&#xe618;" d="M863.451 869.083c43.154 0 78.117-35.035 78.117-78.043v-711.607c0-43.154-35.035-78.117-78.117-78.117h-702.903c-43.008 0-78.043 35.035-78.043 78.117v711.534c0 43.008 35.035 78.043 78.043 78.043h702.903zM863.451 947.2h-702.903c-86.309 0-156.233-69.925-156.233-156.233v-711.607c0-86.382 69.925-156.233 156.233-156.233h702.903c86.235 0 156.306 69.851 156.306 156.233v711.607c-0.073 86.382-70.144 156.233-156.306 156.233v0zM288.11 541.111l149.285-150.089 298.496 300.178 105.253-105.911-403.749-406.089-254.537 256 105.253 105.911z" />
<glyph unicode="&#xe619;" d="M861.915 869.157c42.935 0 77.751-35.109 77.751-78.117v-711.607c0-43.154-34.889-78.043-77.751-78.043h-699.831c-42.862 0-77.751 34.962-77.751 78.043v711.534c0 43.008 34.962 78.117 77.751 78.117h699.831zM861.915 947.2h-699.831c-85.943 0-155.575-69.998-155.575-156.233v-711.607c0-86.309 69.632-156.233 155.575-156.233h699.831c85.87 0 155.575 69.925 155.575 156.233v711.607c0 86.309-69.705 156.233-155.575 156.233v0z" />
<glyph unicode="&#xe61a;" d="M311.808 556.743h-189.611c-20.48 0-37.148-16.782-37.148-37.376v-191.118c0-20.622 16.668-37.376 37.148-37.376h189.611c20.48 0 37.148 16.782 37.148 37.376v191.118c0 20.622-16.668 37.376-37.148 37.376zM159.346 365.739v116.196h115.342v-116.196h-115.342zM311.808 245.988h-189.611c-20.48 0-37.148-16.811-37.148-37.433v-191.033c0.028-20.651 16.697-37.433 37.148-37.433h189.611c20.48 0 37.148 16.782 37.148 37.404v191.033c0 20.651-16.668 37.461-37.148 37.461zM159.346 54.955v116.167h115.342v-116.167h-115.342zM360.932 890.311c-11.406 0-22.244-5.035-28.985-13.454l-143.644-179.456-44.231 49.92c-6.77 7.595-16.953 11.975-27.847 11.975-8.59 0-16.725-2.788-22.955-7.822-7.623-6.201-12.316-14.99-13.198-24.804-0.74-9.671 2.418-19.029 8.875-26.368l73.188-82.631c6.997-7.822 17.067-12.316 27.591-12.316l3.669 0.028 0.142 0.199c9.899 0.996 18.83 5.86 24.889 13.511l171.008 213.532c6.087 7.68 8.761 17.18 7.481 26.766-1.337 9.7-6.428 18.233-14.421 24.092-6.144 4.466-13.625 6.827-21.561 6.827zM903.708 153.6h-459.548c-22.158 0-40.192-18.233-40.192-40.619 0-22.329 18.034-40.533 40.192-40.533h459.577c22.187 0 40.306 18.204 40.306 40.533-0.028 22.386-18.119 40.619-40.334 40.619zM903.708 464.384h-459.548c-22.158 0-40.192-18.233-40.192-40.647 0-22.3 18.034-40.505 40.192-40.505h459.577c22.187 0 40.306 18.204 40.306 40.505-0.028 22.414-18.119 40.647-40.334 40.647zM444.16 694.044h459.577c22.187 0 40.306 18.176 40.306 40.505 0 22.414-18.119 40.647-40.306 40.647h-459.577c-22.158 0-40.192-18.233-40.192-40.647 0-22.329 18.005-40.505 40.192-40.505z" />
<glyph unicode="&#xe61b;" d="M683.397 608.020l-59.914 60.662-299.581-303.442c-49.644-50.268-49.644-131.809 0-182.057 49.623-50.289 130.099-50.289 179.732 0l359.526 364.145c82.739 83.784 82.739 219.658 0 303.442-82.719 83.814-216.873 83.814-299.581 0l-377.467-382.362c-0.256-0.276-0.553-0.532-0.799-0.799-115.384-116.89-115.384-306.36 0-423.209 115.343-116.849 302.408-116.849 417.823 0 0.256 0.256 0.451 0.532 0.758 0.809l0.031-0.031 257.628 260.966-59.935 60.682-257.628-260.936c-0.266-0.256-0.522-0.563-0.788-0.809-82.156-83.2-215.808-83.2-297.984 0-82.145 83.21-82.145 218.614 0 301.814 0.276 0.297 0.553 0.553 0.829 0.809l-0.061 0.051 377.508 382.351c49.541 50.207 130.171 50.207 179.753 0 49.562-50.217 49.562-131.912 0-182.077l-359.506-364.165c-16.558-16.732-43.407-16.732-59.935 0-16.497 16.701-16.497 43.96 0 60.672l299.592 303.483z" />
<glyph unicode="&#xe61c;" d="M967.111 349.781v170.837l-130.475 21.732c-5.319 16.128-11.748 31.716-19.314 46.706l76.857 107.548-120.804 120.804-107.378-76.715c-15.019 7.595-30.692 14.108-46.905 19.456l-21.675 130.162h-170.837l-21.732-130.133c-16.185-5.348-31.886-11.861-46.876-19.456l-107.406 76.686-120.804-120.775 76.857-107.577c-7.538-14.962-13.995-30.549-19.285-46.706l-130.446-21.732v-170.837l130.759-21.788c5.319-15.986 11.748-31.431 19.228-46.251l-77.113-107.947 120.804-120.804 108.146 77.227c14.791-7.424 30.151-13.796 46.023-19.058l21.845-131.072h170.837l21.874 131.1c15.9 5.262 31.26 11.605 45.995 19.058l108.146-77.227 120.804 120.775-77.113 107.947c7.538 14.82 13.938 30.265 19.228 46.279l130.759 21.76zM512 264.533c-94.236 0-170.667 76.43-170.667 170.667s76.43 170.667 170.667 170.667 170.667-76.43 170.667-170.667-76.43-170.667-170.667-170.667z" />
<glyph unicode="&#xe61d;" d="M672.171 890.311h-391.737v-138.581h-138.212v-771.641h601.316v138.581h138.24v557.028l-209.607 214.613zM689.977 50.318c0-6.172-4.949-11.122-11.065-11.122h-465.522c-6.229 0-11.264 5.063-11.264 11.321v636.558c0 6.258 5.063 11.349 11.264 11.349h67.044v-579.755h409.515v-68.352zM828.188 188.871c0-6.116-4.949-11.122-11.065-11.122h-465.493c-6.258 0-11.264 5.092-11.264 11.321v636.615c0 6.258 5.035 11.349 11.264 11.349h278.13c6.258 0 11.264-5.092 11.264-11.349v-182.13h176.071c6.116 0 11.065-4.978 11.065-11.122v-443.563zM715.321 554.98c16.213 0 29.355-11.15 29.355-24.889v0c0-13.739-13.141-24.889-29.355-24.889h-267.292c-16.185 0-29.326 11.15-29.326 24.889v0c0 13.739 13.141 24.889 29.326 24.889h267.292zM563.285 683.406c16.213 0 29.355-11.15 29.355-24.889v0c0-13.739-13.141-24.889-29.355-24.889h-115.257c-16.185 0-29.326 11.15-29.326 24.889v0c0 13.739 13.141 24.889 29.326 24.889h115.257zM715.321 440.491c16.213 0 29.355-11.122 29.355-24.889v0c0-13.739-13.141-24.86-29.355-24.86h-267.292c-16.185 0-29.326 11.122-29.326 24.86v0c0 13.739 13.141 24.889 29.326 24.889h267.292zM715.321 325.973c16.213 0 29.355-11.122 29.355-24.86v0c0-13.739-13.141-24.86-29.355-24.86h-267.292c-16.185 0-29.326 11.122-29.326 24.86v0c0 13.739 13.141 24.86 29.326 24.86h267.292z" />
<glyph unicode="&#xe61e;" d="M768 776.533h-512c-47.132 0-85.333-38.201-85.333-85.333v-28.444h682.667v28.444c0 47.132-38.201 85.333-85.333 85.333zM618.951 833.422l12.544-89.771h-238.99l12.544 89.771h213.902zM625.778 890.311h-227.556c-23.467 0-45.312-19.001-48.583-42.268l-16.64-119.040c-3.243-23.239 13.312-42.24 36.779-42.24h284.444c23.467 0 40.021 19.001 36.75 42.268l-16.64 119.040c-3.243 23.239-25.088 42.24-48.555 42.24v0zM782.222 605.867h-540.444c-31.289 0-54.585-25.486-51.74-56.661l46.62-512.455c2.788-31.175 30.72-56.661 62.009-56.661h426.667c31.289 0 59.221 25.486 62.037 56.661l46.62 512.455c2.816 31.175-20.48 56.661-51.769 56.661zM398.222 93.867h-85.333l-28.444 398.222h113.778v-398.222zM568.889 93.867h-113.778v398.222h113.778v-398.222zM711.111 93.867h-85.333v398.222h113.778l-28.444-398.222z" />
<glyph unicode="&#xe61f;" d="M696.881 699.163h-355.478c-32.738 0-59.22-26.482-59.22-59.22v-19.757h473.919v19.757c0 32.738-26.534 59.22-59.22 59.22zM593.402 738.678l8.706-62.348h-165.931l8.706 62.348h148.52zM598.146 778.141h-158.008c-16.265 0-31.435-13.189-33.728-29.349l-11.521-82.627c-2.294-16.108 9.227-29.297 25.492-29.297h197.47c16.317 0 27.786 13.189 25.544 29.349l-11.573 82.627c-2.242 16.108-17.412 29.297-33.676 29.297zM706.734 580.67h-375.183c-21.738 0-37.899-17.672-35.918-39.306l32.321-355.791c1.981-21.634 21.374-39.306 43.060-39.306h296.206c21.738 0 41.131 17.672 43.060 39.306l32.373 355.791c1.981 21.634-14.18 39.306-35.918 39.306zM440.138 225.244h-59.22l-19.757 276.448h78.978v-276.448zM558.631 225.244h-78.978v276.448h78.978v-276.448zM657.366 225.244h-59.22v276.448h78.978l-19.757-276.448zM512.026-76.8c-282.339 0-512.026 229.687-512.026 512.026s229.687 512.026 512.026 512.026 512.026-229.687 512.026-512.026c0-282.339-229.687-512.026-512.026-512.026zM512.026 852.896c-230.313 0-417.67-187.357-417.67-417.67 0-230.261 187.357-417.67 417.67-417.67s417.67 187.409 417.67 417.67c-0.052 230.313-187.357 417.67-417.67 417.67z" />
<glyph unicode="&#xe620;" d="M91.563-19.911c-19.115 0-34.674 15.502-34.674 34.532v268.203c0 4.181 0.768 8.391 2.361 12.402l122.994 294.628c5.035 13.852 18.204 23.097 32.768 23.097v0l56.178-69.035h-32.199l-97.223-226.503h138.837c19.143 0 34.702-15.502 34.702-34.56v-57.572h393.358v57.572c0 19.058 15.559 34.56 34.674 34.56h138.837l-97.166 226.503h-32.256l54.101 69.035h2.105c14.649 0 27.733-9.159 32.626-22.812l123.164-294.94c1.593-4.011 2.361-8.192 2.361-12.373v-268.203c0-19.029-15.616-34.532-34.731-34.532h-840.818zM618.837 591.047v299.264h-212.11v-299.264h-123.392l228.665-265.671 228.636 265.671h-121.799z" />
<glyph unicode="&#xe621;" d="M824.889 890.311c78.564 0 142.222-63.659 142.222-142.222 0-32-10.61-61.554-28.444-85.333l-56.889-56.889-199.111 199.111 56.889 56.889c23.78 17.863 53.305 28.444 85.333 28.444v0zM113.778 236.089l-56.889-256 256 56.889 526.222 526.222-199.111 199.111-526.222-526.222zM692.935 567.125l-398.222-398.222-49.038 49.010 398.222 398.222 49.038-49.010z" />
<glyph unicode="&#xe622;" d="M908.635 947.2c63.443 0 114.791-51.401 114.791-114.791 0-25.857-8.549-49.68-22.885-68.864l-45.979-45.927-160.718 160.718 45.927 45.927c19.184 14.388 43.008 22.937 68.864 22.937zM334.626 419.17l-45.927-206.645 206.645 45.927 424.76 424.76-160.718 160.718-424.76-424.76zM802.132 686.391l-321.437-321.437-39.567 39.567 321.437 321.437 39.567-39.567zM917.602 533.179c7.611-31.487 12.094-64.173 12.094-97.953 0-230.313-187.409-417.722-417.67-417.722-230.313 0-417.722 187.409-417.722 417.722s187.409 417.67 417.722 417.67c33.468 0 65.841-4.379 97.067-11.886l75.589 75.589c-54.059 19.445-112.029 30.601-172.656 30.601-282.339 0-512.026-229.687-512.026-511.974 0-282.339 229.687-512.026 512.026-512.026s511.974 229.687 511.974 512.026c0 60.941-11.26 119.17-30.861 173.49l-75.537-75.537z" />
<glyph unicode="&#xe623;" d="M620.575 435.2c0-59.964-48.611-108.575-108.575-108.575s-108.575 48.611-108.575 108.575c0 59.964 48.611 108.575 108.575 108.575s108.575-48.611 108.575-108.575zM972.524 435.2c0-59.97-48.615-108.585-108.585-108.585s-108.585 48.615-108.585 108.585c0 59.97 48.615 108.585 108.585 108.585s108.585-48.615 108.585-108.585zM268.657 435.2c0-59.97-48.615-108.585-108.585-108.585s-108.585 48.615-108.585 108.585c0 59.97 48.615 108.585 108.585 108.585s108.585-48.615 108.585-108.585z" />
<glyph unicode="&#xe624;" d="M620.575 435.2c0-59.964-48.611-108.575-108.575-108.575s-108.575 48.611-108.575 108.575c0 59.964 48.611 108.575 108.575 108.575s108.575-48.611 108.575-108.575zM620.585 787.139c0-59.97-48.615-108.585-108.585-108.585s-108.585 48.615-108.585 108.585c0 59.97 48.615 108.585 108.585 108.585s108.585-48.615 108.585-108.585zM620.585 83.272c0-59.97-48.615-108.585-108.585-108.585s-108.585 48.615-108.585 108.585c0 59.97 48.615 108.585 108.585 108.585s108.585-48.615 108.585-108.585z" />
<glyph unicode="&#xe625;" d="M651.179 890.311h-462.848v-313.884h70.77v237.625c0 7.396 5.973 13.397 13.34 13.397h328.676c7.339 0 13.34-6.002 13.34-13.397v-214.869h208.043c7.196 0 13.056-5.888 13.056-13.113v-523.15c0-7.253-5.86-13.113-13.056-13.113h-550.059c-7.367 0-13.34 5.973-13.34 13.369v142.82h-70.77v-225.906h710.514v657.067l-247.666 253.156zM339.996 498.176h-214.841v-213.959h214.841v-133.063l284.786 240.043-284.786 240.014v-133.035z" />
<glyph unicode="&#xe626;" d="M674.361 752.896c0-65.82-53.561-119.182-119.637-119.182-66.048 0-119.637 53.362-119.637 119.182s53.589 119.182 119.637 119.182c66.076 0 119.637-53.362 119.637-119.182zM712.22 686.82c-6.372-14.99-14.82-28.871-25.031-41.33 18.574-3.385 36.238-7.282 52.594-11.748 28.245-7.708 52.167-16.868 69.205-26.567 11.236-6.372 17.294-11.776 20.11-14.99-2.816-3.214-8.903-8.619-20.11-14.99-17.038-9.671-40.932-18.859-69.205-26.567-62.521-17.067-143.417-26.453-227.783-26.453s-165.262 9.387-227.812 26.453c-28.217 7.708-52.139 16.868-69.177 26.567-11.236 6.4-17.294 11.776-20.139 14.99 2.844 3.214 8.903 8.619 20.139 14.99 17.038 9.671 40.932 18.859 69.177 26.567 7.225 1.963 14.763 3.812 22.471 5.575-0.91 6.144-1.877 12.26-1.877 18.631 0 9.728 1.422 19.058 3.47 28.16-96.74-20.338-160.341-54.812-160.341-93.924v-68.011l273.067-272.043v-226.731c0-25.003 40.732-45.312 91.022-45.312s91.022 20.309 91.022 45.34v226.731l273.067 272.043v68.011c0 39.538-65.195 74.325-163.868 94.606zM514.133 657.948c0-43.492-35.385-78.763-79.047-78.763s-79.047 35.271-79.047 78.763c0 43.492 35.385 78.763 79.047 78.763s79.047-35.271 79.047-78.763zM381.582 846.535c0-24.178-19.684-43.776-43.947-43.776-24.292 0-43.947 19.598-43.947 43.776s19.684 43.776 43.947 43.776c24.263 0 43.947-19.598 43.947-43.776z" />
<glyph unicode="&#xe627;" d="M632.092 620.146c0-54.528-44.629-98.731-99.698-98.731s-99.698 44.203-99.698 98.731c0 54.528 44.629 98.702 99.698 98.702s99.698-44.203 99.698-98.702zM663.609 565.419c-5.291-12.43-12.373-23.893-20.821-34.219 15.474-2.788 30.208-6.030 43.804-9.728 23.524-6.372 43.463-13.995 57.628-21.988 9.358-5.291 14.421-9.756 16.782-12.43-2.361-2.674-7.424-7.14-16.782-12.43-14.165-8.021-34.105-15.616-57.628-21.988-52.11-14.137-119.495-21.931-189.81-21.931-70.286 0-137.7 7.794-189.81 21.931-23.524 6.4-43.435 13.995-57.628 21.988-9.33 5.291-14.393 9.756-16.754 12.43 2.361 2.674 7.424 7.14 16.754 12.43 14.194 8.021 34.105 15.616 57.628 21.988 6.030 1.65 12.316 3.157 18.716 4.636-0.74 5.092-1.593 10.126-1.593 15.417 0 8.050 1.195 15.787 2.901 23.324-80.583-16.868-133.575-45.426-133.575-77.796v-56.348l227.527-225.28v-187.79c0-20.736 33.934-37.547 75.833-37.547s75.861 16.839 75.861 37.547v187.79l227.499 225.28v56.348c0 32.768-54.3 61.554-136.533 78.364zM498.546 541.525c0-36.039-29.468-65.223-65.849-65.223-36.352 0-65.849 29.184-65.849 65.223 0 36.011 29.497 65.223 65.849 65.223 36.38 0 65.849-29.212 65.849-65.223zM388.124 697.714c0-20.025-16.384-36.238-36.608-36.238s-36.636 16.213-36.636 36.238c0 20.025 16.384 36.238 36.608 36.238s36.636-16.213 36.636-36.238zM556.743 748.885l114.887 23.239-27.42 27.164 55.324 54.812-36.523 36.21-55.353-54.812-27.42 27.164-23.495-113.778zM687.758 619.15l114.916 23.239-27.449 27.164 55.353 54.812-36.58 36.21-55.324-54.812-27.449 27.164-23.467-113.778z" />
<glyph unicode="&#xe628;" d="M897.044 711.608l-334.746 190.515c-27.658 15.749-72.94 15.749-100.608 0l-334.735-190.515c-27.668-15.749-50.309-54.405-50.309-85.903v-381.020c0-31.498 22.641-70.154 50.309-85.903l334.725-190.505c27.668-15.749 72.95-15.749 100.608 0l334.735 190.505c27.658 15.749 50.299 54.405 50.299 85.903v381.020c0.020 31.508-22.62 70.154-50.278 85.903zM900.024 260.495c0-28.088-20.183-62.587-44.82-76.626l-298.363-169.974c-24.658-14.049-65.024-14.049-89.682 0l-298.342 169.974c-24.658 14.039-44.841 48.538-44.841 76.626v339.937c0 28.099 20.183 62.587 44.841 76.636l298.342 169.964c24.668 14.049 65.024 14.049 89.682 0l298.363-169.964c24.637-14.049 44.82-48.538 44.82-76.636v-339.937z" />
<glyph unicode="&#xe629;" d="M506.539 890.311l-367.872-242.148h746.667l-378.795 242.148zM125.156-19.911h773.689v86.073h-773.689v-86.073zM125.156 606.379v-70.372h28.786v-427.634h92.587v427.605h114.773v-427.52h92.615v427.52h116.167v-427.52h92.615v427.52h114.773v-427.605h92.615v427.605h28.757v70.372h-773.689z" />
<glyph unicode="&#xe62a;" d="M651.179 890.311h-462.848v-313.884h70.77v237.625c0 7.396 5.973 13.397 13.34 13.397h328.676c7.339 0 13.34-6.002 13.34-13.397v-214.869h208.014c7.225 0 13.084-5.888 13.084-13.113v-523.15c0-7.253-5.86-13.141-13.084-13.141h-550.030c-7.367 0-13.34 6.002-13.34 13.397v142.82h-70.77v-225.906h710.514v657.067l-247.666 253.156zM409.97 284.188h214.812v213.959h-214.812v133.063l-284.814-240.043 284.814-240.014v133.035z" />
<glyph unicode="&#xe62b;" d="M112.817 453.947l219.451-80.975 593.132 355.525-812.583-274.55zM506.703 360.586l251.136-67.663 266.161 447.508-517.297-379.845zM476.849 365.962l-0.807 1.142 497.506 365.233-585.058-355.289 77.982-207.892 10.378 196.805zM486.538 157.657l137.255 147.102-127.646 34.383-9.61-181.484zM901.593 424.724c-5.652-219.215-182.036-395.874-398.533-395.874-220.239 0-399.399 182.43-399.399 406.587 0 223.921 179.18 406.055 399.399 406.055 105.058 0 196.45-37.908 267.461-105.374l109.627 37.041c-92.219 106.575-227.072 174.041-377.226 174.041-277.307 0-502.922-229.573-502.922-511.744 0-282.447 225.615-512.256 502.922-512.256 277.287 0 502.863 229.809 502.863 512.256 0 48.699-5.711 90.762-17.94 134.282l-86.252-145.014z" />
<glyph unicode="&#xe62c;" d="M887.125 806.884l-3.385 3.442c-80.071 79.986-211.029 79.986-290.958 0l-185.372-185.401c-80.014-80.014-80.014-210.916 0-290.901l3.413-3.413c6.656-6.684 13.71-12.686 21.020-18.261l67.868 67.84c-7.908 4.722-15.417 10.24-22.187 17.095l-3.442 3.413c-43.435 43.435-43.435 114.119 0 157.582l185.429 185.344c43.378 43.435 114.062 43.435 157.497 0l3.442-3.413c43.406-43.435 43.406-114.119 0-157.554l-83.826-83.883c14.564-35.954 21.447-74.268 20.793-112.526l129.707 129.735c79.986 79.986 79.986 210.887 0 290.901v0zM613.177 539.79c-6.628 6.656-13.682 12.686-20.992 18.233l-67.868-67.84c7.908-4.665 15.417-10.268 22.187-17.067l3.442-3.413c43.406-43.463 43.406-114.119 0-157.554l-185.401-185.401c-43.435-43.435-114.091-43.435-157.525 0l-3.442 3.442c-43.406 43.435-43.406 114.119 0 157.554l83.854 83.826c-14.564 35.954-21.447 74.268-20.85 112.498l-129.678-129.707c-80.014-79.929-80.014-210.83 0-290.816l3.413-3.442c80.014-80.014 210.916-80.014 290.901-0.028l185.372 185.372c80.014 79.986 80.014 210.916 0 290.93l-3.413 3.413z" />
<glyph unicode="&#xe62d;" d="M664.556 521.482c0-79.526-64.469-143.995-143.995-143.995s-143.995 64.469-143.995 143.995c0 79.526 64.469 143.995 143.995 143.995s143.995-64.469 143.995-143.995zM519.373 926.72c-271.483 0-491.54-220.058-491.54-491.52s220.058-491.52 491.54-491.52c271.421 0 491.5 220.058 491.5 491.52s-220.078 491.52-491.5 491.52zM519.373 90.030c0 0-258.908 288.502-258.908 431.473 0 142.95 115.917 258.867 258.908 258.867s258.867-115.917 258.867-258.867c0-142.991-258.867-431.473-258.867-431.473z" />
<glyph unicode="&#xe62e;" d="M512 385.308l423.908 344.405c-2.276 0.37-4.352 1.308-6.713 1.308h-834.361c-2.332 0-4.38-0.939-6.684-1.337l423.851-344.377zM967.111 694.044c0 3.897-1.109 7.481-2.304 11.008l-300.487-244.196 300.971-293.461c0.768 2.901 1.82 5.746 1.82 8.96v517.689zM59.221 705.081c-1.166-3.556-2.332-7.111-2.332-11.036v-517.689c0-3.243 1.138-6.087 1.877-9.045l301.056 293.518-300.601 244.252zM634.994 437.077l-110.876-90.055c-3.47-2.901-7.765-4.267-12.117-4.267-4.267 0-8.619 1.394-12.146 4.267l-110.791 89.998-303.417-295.822c3.015-0.768 5.973-1.82 9.188-1.82h834.361c3.271 0 6.258 1.052 9.273 1.82l-303.474 295.879z" />
<glyph unicode="&#xe62f;" d="M56.889 516.324h910.222v-162.219h-910.222v162.219z" />
<glyph unicode="&#xe630;" d="M512 874.057c242.030 0 438.857-196.827 438.857-438.857s-196.827-438.857-438.857-438.857-438.857 196.827-438.857 438.857 196.827 438.857 438.857 438.857zM512 947.2c-282.77 0-512-229.23-512-512s229.23-512 512-512c282.697 0 512 229.23 512 512s-229.303 512-512 512v0zM512 654.629c121.125 0 219.429-98.231 219.429-219.429s-98.304-219.429-219.429-219.429c-121.198 0-219.429 98.231-219.429 219.429s98.231 219.429 219.429 219.429z" />
<glyph unicode="&#xe631;" d="M512 874.057c242.030 0 438.857-196.827 438.857-438.857s-196.827-438.857-438.857-438.857-438.857 196.827-438.857 438.857 196.827 438.857 438.857 438.857zM512 947.2c-282.77 0-512-229.23-512-512s229.23-512 512-512c282.697 0 512 229.23 512 512s-229.303 512-512 512v0z" />
<glyph unicode="&#xe632;" d="M827.29 894.601l-314.402-314.3-314.47 314.3-145.033-144.998 314.505-314.3-314.505-314.505 145.033-144.998 314.47 314.539 314.402-314.539 144.998 144.998-314.402 314.505 314.402 314.3z" />
<glyph unicode="&#xe633;" d="M673.37 675.756l-160.041-160.041-160.093 160.041-73.817-73.817 160.093-160.041-160.093-160.093 73.817-73.817 160.093 160.093 160.041-160.093 73.817 73.817-160.041 160.093 160.041 160.041zM512.026 947.252c-282.339 0-512.026-229.687-512.026-512.026s229.687-512.026 512.026-512.026 512.026 229.687 512.026 512.026c0 282.339-229.687 512.026-512.026 512.026zM512.026 17.556c-230.313 0-417.67 187.409-417.67 417.67 0 230.313 187.357 417.67 417.67 417.67s417.67-187.357 417.67-417.67c-0.052-230.313-187.357-417.67-417.67-417.67z" />
<glyph unicode="&#xe634;" d="M938.667 541.867h-320l119.609 119.609c-60.444 60.444-140.828 93.724-226.276 93.724-85.476 0-165.831-33.28-226.276-93.724s-93.724-140.8-93.724-226.276 33.28-165.831 93.724-226.276 140.8-93.724 226.276-93.724c85.447 0 165.831 33.28 226.276 93.724 5.006 5.063 9.899 10.268 14.564 15.559l80.27-70.229c-78.222-89.344-193.109-145.721-321.109-145.721-235.662 0-426.667 191.004-426.667 426.667s191.004 426.667 426.667 426.667c117.817 0 224.484-47.758 301.653-125.013l125.013 125.013v-320z" />
<glyph unicode="&#xe635;" d="M867.556 8.533h-711.111c-39.282 0-71.111 31.829-71.111 71.111v711.111c0 39.282 31.829 71.111 71.111 71.111h711.111c39.282 0 71.111-31.829 71.111-71.111v-711.111c0-39.282-31.829-71.111-71.111-71.111zM405.333 61.867v-17.778h106.667v195.556c0 29.468-23.893 53.333-53.333 53.333s-53.333-23.865-53.333-53.333v-177.778zM707.556 755.2h-142.222c-9.842 0-17.778-7.936-17.778-17.778 0-9.813 7.936-17.778 17.778-17.778h142.222c9.813 0 17.778 7.964 17.778 17.778 0 9.842-7.964 17.778-17.778 17.778zM707.556 684.089h-142.222c-9.842 0-17.778-7.964-17.778-17.778s7.936-17.778 17.778-17.778h142.222c9.813 0 17.778 7.964 17.778 17.778s-7.964 17.778-17.778 17.778zM707.556 612.978h-142.222c-9.842 0-17.778-7.936-17.778-17.778 0-9.813 7.936-17.778 17.778-17.778h142.222c9.813 0 17.778 7.964 17.778 17.778 0 9.842-7.964 17.778-17.778 17.778zM867.556 719.644c0 39.282-31.829 71.111-71.111 71.111v-248.889c0-39.253-31.829-71.111-71.111-71.111h-426.667c-39.282 0-71.111 31.858-71.111 71.111v248.889c-39.282 0-71.111-31.858-71.111-71.111v-568.889c0-39.282 31.829-71.111 71.111-71.111h71.111v213.333c0 39.282 31.829 71.111 71.111 71.111h284.444c39.282 0 71.111-31.829 71.111-71.111v-213.333h71.111c39.282 0 71.111 31.829 71.111 71.111v568.889z" />
<glyph unicode="&#xe636;" d="M892.558-19.911c-19.001 0-36.864 7.452-50.318 20.992l-218.539 220.217c-1.849 1.877-3.356 3.954-4.921 6.059l-2.759 3.726-4.978-1.052c-57.998-38.059-125.156-58.169-194.219-58.169-196.58 0-356.523 161.166-356.523 359.225 0.057 198.059 159.972 359.225 356.551 359.225 196.608 0 356.551-161.166 356.551-359.225 0-69.604-19.94-137.216-57.657-195.556l-2.418-3.783 5.831-4.665c1.792-1.337 3.584-2.731 5.262-4.38l218.482-220.217c27.705-27.932 27.705-73.444-0.028-101.376-13.454-13.568-31.346-21.020-50.318-21.020zM416.853 785.266c-139.093 0-252.245-114.034-252.245-254.18s113.152-254.18 252.245-254.18 252.245 114.034 252.245 254.18-113.152 254.18-252.245 254.18z" />
<glyph unicode="&#xe637;" d="M654.82 48.356h-130.873l-52.053 147.911h-238.194l-49.18-147.911h-127.63l232.107 651.15h127.232l238.592-651.15zM433.294 305.977l-82.119 241.607-80.498-241.607h162.617zM667.022 48.356v62.35l164.636 222.208h-146.062v57.941h229.404v-53.76l-171.691-231.083h178.347v-57.657h-254.635zM783.246 466.688l-183.865 184.775h141.454v170.581h84.821v-170.581h141.454l-183.865-184.775z" />
<glyph unicode="&#xe638;" d="M913.266 48.356h-66.048l-26.283 75.406h-120.292l-24.804-75.406h-64.455l117.163 332.060h64.284l120.434-332.060zM801.451 179.74l-41.5 123.25-40.619-123.25h82.119zM79.644 48.356v118.585l309.874 422.4h-274.859v110.165h431.787v-102.172l-323.129-439.268h335.616v-109.71h-479.289zM762.34 466.688l-182.044 184.804h140.060v170.553h83.996v-170.581h140.004l-182.016-184.775z" />
<glyph unicode="&#xe639;" d="M967.111 537.259l-314.51 45.653-140.601 284.644-140.629-284.644-314.482-45.653 227.556-221.554-53.732-312.86 281.287 147.712 281.287-147.712-53.732 312.86 227.556 221.554z" />
<glyph unicode="&#xe63a;" d="M778.152 537.819l-183.917 26.795-82.21 166.557-82.262-166.557-183.917-26.795 133.089-129.649-31.435-183.187 164.524 86.432 164.472-86.432-31.383 183.187zM512.026-76.8c-282.339 0-512.026 229.687-512.026 512.026s229.687 512.026 512.026 512.026 512.026-229.687 512.026-512.026c0-282.339-229.687-512.026-512.026-512.026zM512.026 852.896c-230.313 0-417.67-187.357-417.67-417.67 0-230.261 187.357-417.67 417.67-417.67s417.67 187.409 417.67 417.67c-0.052 230.313-187.357 417.67-417.67 417.67z" />
<glyph unicode="&#xe63b;" d="M511.985 947.2c-282.756 0-511.985-229.198-511.985-512.015 0-282.756 229.229-511.985 511.985-511.985 282.786 0 512.015 229.229 512.015 511.985 0 282.817-229.229 512.015-512.015 512.015zM423.040 346.271h-233.048v147.122h643.984v-147.122h-410.937z" />
<glyph unicode="&#xe63c;" d="M664.917 890.311h-437.163v-475.364l66.873 81.323v320.796c0 7.111 5.632 12.857 12.572 12.857h310.414c6.969 0 12.601-5.774 12.601-12.857v-206.393h196.494c6.827 0 12.345-5.66 12.345-12.601v-502.585c0-6.94-5.49-12.601-12.345-12.601h-306.972v-66.958h379.108v631.182l-233.927 243.2zM252.53 190.976v-210.887h204.828v210.887h127.374l-229.774 279.552-229.803-279.552h127.374z" />
<glyph unicode="&#xe63d;" d="M622.279 890.311h-474.368v-910.222h728.178v657.067l-253.81 253.156zM811.236 62.919c0-7.253-6.002-13.113-13.397-13.113h-563.74c-7.566 0-13.653 5.973-13.653 13.369v750.876c0 7.396 6.116 13.397 13.653 13.397h336.839c7.566 0 13.653-6.002 13.653-13.397v-214.869h213.22c7.396 0 13.397-5.888 13.397-13.113v-523.15zM382.834 419.698c0-23.182-19.228-42.012-42.894-42.012-23.694 0-42.923 18.802-42.923 42.012s19.228 42.041 42.923 42.041c23.666 0 42.894-18.83 42.894-42.041zM549.888 419.698c0-23.182-19.2-42.012-42.894-42.012s-42.894 18.802-42.894 42.012c0 23.211 19.2 42.041 42.894 42.041s42.894-18.83 42.894-42.041zM716.942 419.698c0-23.182-19.2-42.012-42.894-42.012s-42.894 18.802-42.894 42.012c0 23.211 19.2 42.041 42.894 42.041s42.894-18.83 42.894-42.041z" />
<glyph unicode="&#xe63e;" d="M384.017 307.149l-256.017 256.034-128-128.034 383.966-383.966 640.034 640.034-127.983 128z" />
<glyph unicode="&#xe63f;" d="M512 947.2c-282.778 0-512-229.222-512-512s229.222-512 512-512 512 229.222 512 512-229.222 512-512 512zM512 25.6c-226.202 0-409.6 183.373-409.6 409.6 0 226.202 183.398 409.6 409.6 409.6 226.227 0 409.6-183.398 409.6-409.6 0-226.227-183.373-409.6-409.6-409.6zM439.603 367.181l-144.819 144.819-72.397-72.422 217.19-217.19 362.035 362.035-72.397 72.397z" />
<glyph unicode="&#xe640;" d="M0 947.2l1024-1024v859.571l-384.845-384.819-230.861 230.835 76.954 77.005 153.958-153.933 307.814 307.866 76.979-76.954v164.429z" />
<glyph unicode="&#xe641;" d="M91.563-19.911c-19.115 0-34.674 14.763-34.674 32.882v255.431c0 4.011 0.768 7.936 2.361 11.776l123.022 280.604c5.006 13.17 18.176 21.959 32.74 21.959h103.31v-65.735h-79.332l-97.223-215.751h138.837c19.143 0 34.702-14.791 34.702-32.882v-54.869h393.358v54.869c0 18.119 15.559 32.882 34.674 32.882h138.837l-97.166 215.751h-79.388v65.735h103.367c14.649 0 27.733-8.732 32.626-21.703l123.164-280.889c1.564-3.783 2.332-7.737 2.332-11.719v-255.431c0-18.148-15.616-32.91-34.731-32.91h-840.818zM405.163 637.269v-285.042h212.11v285.042h123.364l-228.636 253.042-228.636-253.042h121.799z" />
<glyph unicode="&#xe642;" d="M27.635 709.147c-15.216 0-27.635 12.42-27.635 27.635v182.783c0 15.281 12.42 27.635 27.635 27.635h182.783c15.216 0 27.635-12.355 27.635-27.635v-182.783c0-15.216-12.42-27.635-27.635-27.635h-182.783zM419.861 709.147c-15.216 0-27.635 12.42-27.635 27.635v182.783c-0.065 15.281 12.355 27.635 27.635 27.635h182.783c15.151 0 27.635-12.355 27.635-27.635v-182.783c0-15.216-12.42-27.635-27.7-27.635h-182.718zM812.021 709.147c-15.151 0-27.635 12.42-27.635 27.635v182.783c0 15.281 12.42 27.635 27.635 27.635h182.848c15.151 0 27.635-12.42 27.635-27.635v-182.783c0-15.216-12.42-27.635-27.635-27.635h-182.848zM27.635 316.206c-15.216 0-27.635 12.355-27.635 27.635v182.783c0 15.216 12.42 27.635 27.635 27.635h182.783c15.216 0 27.635-12.42 27.635-27.635v-182.783c0-15.216-12.42-27.635-27.635-27.635h-182.783zM419.861 316.206c-15.216 0-27.635 12.355-27.635 27.635v182.783c0 15.216 12.42 27.635 27.635 27.635h182.783c15.216 0 27.7-12.42 27.7-27.635v-182.783c0-15.216-12.42-27.635-27.7-27.635h-182.783zM812.021 316.206c-15.151 0-27.635 12.355-27.635 27.635v182.783c0 15.216 12.42 27.635 27.635 27.635h182.848c15.151 0 27.635-12.42 27.635-27.635v-182.783c0-15.216-12.42-27.635-27.635-27.635h-182.848zM27.635-76.8c-15.216 0-27.635 12.42-27.635 27.635v182.848c0 15.151 12.42 27.635 27.635 27.635h182.783c15.216 0 27.635-12.42 27.635-27.635v-182.848c0-15.151-12.42-27.635-27.635-27.635h-182.783zM419.861-76.8c-15.216 0-27.635 12.42-27.635 27.635v182.848c0 15.151 12.42 27.635 27.635 27.635h182.783c15.216 0 27.7-12.42 27.7-27.635v-182.848c0-15.151-12.42-27.635-27.7-27.635h-182.783zM812.021-76.8c-15.151 0-27.635 12.42-27.635 27.635v182.848c0 15.151 12.42 27.635 27.635 27.635h182.848c15.151 0 27.635-12.42 27.635-27.635v-182.848c0-15.151-12.42-27.635-27.635-27.635h-182.848z" horiz-adv-x="1022" />
<glyph unicode="&#xe643;" d="M0 691.2v170.675h1024v-170.675h-1024zM0 349.85v170.675h1024v-170.675h-1024zM0 8.525v170.675h1024v-170.675h-1024z" />
<glyph unicode="&#xe644;" d="M455.111 150.756l0.028 227.556h-227.584v113.778l227.584-0.028-0.028 227.584h113.778l-0.028-227.584 227.584 0.028v-113.778h-227.584l0.028-227.556h-113.778z" />
<glyph unicode="&#xe645;" d="M227.556 492.089h568.889v-113.778h-568.889v113.778z" />
<glyph unicode="&#xe646;" d="M515.107 947.2c-284.032 0-515.107-233.909-515.107-521.418 0-104.303 30.342-204.996 87.745-291.166 9.266-13.918 28.053-17.673 41.983-8.418 13.918 9.278 17.685 28.065 8.418 41.995-50.752 76.201-77.582 165.266-77.582 257.59 0 254.113 203.906 460.854 454.543 460.854s454.555-206.74 454.555-460.854c0-102.765-31.166-197.087-90.119-272.743-91.972-118.027-268.128-208.424-426.878-152.863-55.67 19.477-95.473 46.004-118.293 78.793-1.768 2.556-3.367 5.402-5.039 8.152 11.652-1.538 23.317-3.077 34.97-4.615 17.043-1.659 28.513 8.697 36.132 27.326 15.892 48.512 31.784 96.987 47.688 145.462 5.281 22.178 0.133 36.084-12.258 44.26-23.087 14.656-44.89 26.527-68.001 41.171 71.792 121.346 119.444 160.809 188.571 212.542 22.736-15.238 45.435-30.488 68.183-45.75 12.476-8.019 27.302-7.074 45.447 6.662 37.986 34.122 75.911 68.207 113.86 102.341 13.954 14.499 18.787 29.143 10.393 44.054-20.41 33.552-40.82 67.093-61.23 100.621-17.515 29.955-31.178 30.161-54.071 19.053-259.528-145.523-456.772-366.059-470.75-640.534-0.896-25.413 4.797-37.84 39.257-41.801 3.379-0.448 6.759-0.884 10.126-1.332 7.389-19.102 16.376-36.883 26.999-52.182 30.27-43.497 80.065-77.594 148.006-101.372 39.354-13.784 79.496-20.010 119.359-20.010 148.236 0 292.353 86.364 375.289 192.811 67.335 86.4 102.922 193.574 102.922 309.965 0 287.496-231.087 521.406-515.119 521.406z" horiz-adv-x="1030" />
<glyph unicode="&#xe647;" d="M837.427 182.17c-140.242 51.109-185.071 94.219-185.071 186.539 0 55.421 42.826 37.319 61.622 138.809 7.805 42.098 45.625 0.671 52.861 96.791 0 38.298-20.639 47.821-20.639 47.821s10.49 56.684 14.598 100.306c5.086 54.329-31.403 194.765-226.042 194.765s-231.151-140.436-226.042-194.776c4.119-43.622 14.598-100.306 14.598-100.306s-20.639-9.523-20.639-47.821c7.225-96.119 45.045-54.693 52.85-96.791 18.819-101.49 61.622-83.388 61.622-138.809 0-92.308-44.806-135.418-185.048-186.539-140.686-51.268-232.095-103.538-232.095-139.184v-119.774h1069.511v119.774c0 35.647-91.398 87.916-232.084 139.196z" horiz-adv-x="1070" />
<glyph unicode="&#xe648;" d="M988.442 750.259h-333.798l-8.422-71.168h306.662v-610.406h-881.766v610.406h320.538l-8.422 71.168h-347.674c-19.661 0-35.558-15.949-35.558-35.584v-681.6c0-19.61 15.898-35.507 35.558-35.507h952.909c19.686 0 35.558 15.949 35.558 35.507v681.6c0 19.635-15.898 35.584-35.584 35.584zM451.814 654.771c2.125-17.894 17.306-31.462 35.328-31.462h63.59c17.971 0 33.178 13.542 35.277 31.462l2.918 24.32 5.222 44.186 13.005 109.722c1.178 10.138-1.997 20.25-8.73 27.853-6.784 7.603-16.461 11.93-26.598 11.93h-105.779c-10.138 0-19.814-4.326-26.598-11.93-6.733-7.603-9.933-17.715-8.704-27.853l21.069-178.227zM862.182 318.387h-264.602c-7.834 0-14.234-6.4-14.234-14.208 0-7.859 6.4-14.259 14.234-14.259h264.602c7.859 0 14.234 6.4 14.234 14.259s-6.4 14.208-14.234 14.208zM862.182 430.797h-264.602c-7.834 0-14.234-6.4-14.234-14.259s6.4-14.259 14.234-14.259h264.602c7.859 0 14.234 6.4 14.234 14.259-0.026 7.885-6.4 14.259-14.234 14.259zM504.755 212.198v-0.051c0-8.602-7.014-15.59-15.642-15.59h-302.694c-8.627 0-15.642 6.989-15.642 15.59v0.051c0 0 0 57.062 41.677 77.798 26.394 13.158 16.205 2.509 48.614 15.898 32.384 13.44 40.038 18.099 40.038 18.099l0.333 30.899c0 0-12.16 9.242-15.923 38.4-7.578-2.202-10.112 8.858-10.547 15.898-0.435 6.861-4.403 28.211 4.838 26.266-1.869 14.234-3.251 27.085-2.586 33.894 2.33 23.885 25.344 48.819 60.774 50.637 41.677-1.792 58.163-26.726 60.493-50.637 0.691-6.835-0.819-19.661-2.688-33.869 9.293 1.894 5.248-19.405 4.813-26.24-0.435-6.989-2.995-18.048-10.547-15.898-3.789-29.107-15.923-38.298-15.923-38.298l0.307-30.746c0 0 7.654-4.403 40.064-17.792 32.384-13.44 22.195-3.405 48.589-16.512 41.651-20.762 41.651-77.798 41.651-77.798z" />
<glyph unicode="&#xe649;" d="M1014.63 340.915c-28.902-47.744-121.114-82.662-230.426-82.662-109.338 0-201.549 34.918-230.426 82.662-6.144 10.138-9.395 4.736-9.395-0.307v-70.118c0-67.84 107.366-138.24 239.821-138.24s239.795 70.4 239.795 138.24v70.144c0 5.018-3.277 10.394-9.37 0.282zM1015.014 494.746c-28.416-42.24-121.011-73.19-230.81-73.19-109.824 0-202.394 30.95-230.835 73.19-5.862 8.73-9.011 3.994-9.011 0.051v-82.509c0-61.722 107.366-111.744 239.821-111.744s239.795 50.022 239.795 111.744v82.509c0.026 3.942-3.098 8.678-8.96-0.051zM784.205 697.933c-132.454 0-239.821-41.267-239.821-92.186v-44.109c0-54.016 107.366-97.792 239.821-97.792s239.795 43.776 239.795 97.792v44.109c0 50.918-107.341 92.186-239.795 92.186zM465.92 645.862c12.8 0 25.344 0.538 37.402 1.536 22.374 43.853 79.565 73.088 148.454 88.832v19.584c0.026 39.475-83.149 71.475-185.856 71.475-102.656 0-185.856-31.974-185.856-71.45v-34.176c0.026-41.882 83.226-75.802 185.856-75.802zM465.92 519.27c11.315 0 22.349 0.538 33.126 1.459 0.486 1.050 0.742 2.278 1.306 3.277-4.813 11.597-7.373 24.141-7.373 37.632v44.109c0 2.867 0.538 5.53 0.768 8.32-9.088-0.589-18.355-0.998-27.853-0.998-85.094 0-156.877 24.013-178.918 56.755-4.531 6.733-6.938 3.072-6.938 0.026v-63.949c0.051-47.846 83.251-86.63 185.882-86.63zM328.602 208.179c-13.184-15.155-33.101-24.013-59.725-26.598v-34.995h-28.979v34.995c-43.597 4.71-70.093 26.138-79.514 64.461l49.818 11.674c5.658-21.862 21.248-32.768 46.694-32.768 12.314 0 21.53 2.406 27.674 7.194 6.067 4.813 9.139 10.624 9.139 17.408 0 6.938-2.739 12.262-8.166 16.154-5.427 3.789-16.051 7.296-31.898 10.496-34.304 7.219-56.422 16.998-66.381 29.312-9.984 12.288-14.95 26.65-14.95 43.11 0 19.302 6.298 35.738 18.842 49.408 12.544 13.645 28.8 21.709 48.717 24.166v29.235h29.005v-28.877c37.299-3.584 61.67-21.786 73.165-54.63l-45.67-15.514c-6.17 18.534-19.251 27.776-39.27 27.776-21.274 0-31.898-7.014-31.898-21.094 0-5.709 1.971-10.47 5.965-14.362 3.994-3.917 12.979-7.296 27.008-10.138 23.398-4.813 40.602-9.702 51.507-14.618 10.957-4.941 20.122-12.954 27.546-23.962 7.475-11.008 11.162-23.27 11.162-36.838 0-18.893-6.63-35.866-19.789-50.995zM465.587 388.838c0.128 0 0.23 0 0.358 0 10.010 0 19.763 0.64 29.338 1.613-1.459 7.117-2.278 14.413-2.278 21.862v75.264c-8.883-0.614-17.843-1.075-27.085-1.075-37.888 0-72.781 5.632-102.144 14.925 45.389-24.781 81.51-64.538 101.811-112.589zM323.866 518.477c-16.384 9.344-29.235 20.122-36.506 32.128-4.736 7.859-7.27 3.661-7.27-0.23v-22.605c15.053-1.715 29.722-4.838 43.776-9.293zM254.362 43.085c-140.262 0-254.362 114.79-254.362 255.898s114.125 255.898 254.362 255.898c140.262 0 254.387-114.79 254.387-255.898s-114.099-255.898-254.387-255.898zM254.362 503.68c-112.64 0-204.262-91.827-204.262-204.698s91.648-204.698 204.262-204.698 204.288 91.827 204.288 204.698c0.026 112.845-91.648 204.698-204.288 204.698z" />
<glyph unicode="&#xe64a;" d="M1024 48.356c0 0-113.778 553.722-612.978 553.722v219.967l-411.022-367.229 411.022-380.644v247.933c270.95 0 471.689-24.030 612.978-273.749z" />
<glyph unicode="&#xe64b;" d="M716.416 947.2h-522.778v-271.36c25.37 8.525 52.173 13.875 79.923 15.846v169.754c0 8.32 6.758 15.027 15.053 15.027h371.277c8.32 0 15.027-6.733 15.027-15.027v-241.715h235.034c8.192 0 14.797-6.579 14.797-14.771v-588.57c0-8.115-6.579-14.746-14.797-14.746h-128.282c2.586-27.648-5.35-55.706-23.578-78.413h238.157v739.2l-279.834 284.774zM471.782 1.638h-183.168c-8.32 0-15.027 6.733-15.027 15.053v10.112c-27.776 1.946-54.554 7.296-79.949 15.846v-119.424h356.557l-78.413 78.413zM654.976-52.070c-14.336 0-27.802 5.606-37.914 15.744l-164.736 164.736c-1.382 1.459-2.534 2.918-3.686 4.506l-2.074 2.816-3.763-0.819c-43.699-28.442-94.336-43.443-146.355-43.443-148.173-0.077-268.698 120.474-268.698 268.698 0 148.147 120.525 268.646 268.698 268.646 148.198 0 268.698-120.525 268.698-268.646 0-52.096-15.027-102.733-43.443-146.304l-1.869-2.842 4.403-3.456c1.382-0.998 2.688-2.074 3.968-3.302l164.685-164.736c20.838-20.915 20.838-54.963-0.026-75.853-10.163-10.138-23.578-15.744-37.888-15.744zM296.448 550.221c-104.832 0-190.106-85.299-190.106-190.054 0-104.909 85.274-190.131 190.106-190.131s190.106 85.222 190.106 190.131c-0.026 104.755-85.299 190.054-190.106 190.054z" />
<glyph unicode="&#xe64c;" d="M169.062 320.543c23.747-96.215 53.924-138.25 154.726-182.323 100.803-44.063 148.675-92.14 188.211-92.14s84.357 42.097 185.17 86.18c100.803 44.083 73.912 57.477 97.659 153.692l-282.829-137.472-342.938 172.063zM998.963 571.597l-426.24 238.694c-33.403 18.708-88.044 18.708-121.446 0l-426.24-238.694c-33.382-18.698-33.382-49.306 0-68.004l426.24-238.674c33.403-18.698 88.044-18.698 121.446 0l275.538 154.276-298.793 69.99c-11.53-2.847-24.187-4.454-37.468-4.454-53.821 0-97.464 25.958-97.464 57.979s43.643 57.989 97.464 57.989c41.789 0 77.332-15.688 91.177-37.663l316.477-103.864 79.299 44.411c33.382 18.708 33.382 49.316 0.010 68.014zM868.69 119.245c-3.246-19.702 65.71-52.060 72.294 5.54 29.624 259.656-21.32 334.397-21.32 334.397l-71.404-39.977c0-0.010 60.539-57.62 20.429-299.96z" />
<glyph unicode="&#xe64d;" d="M956.928 315.136l-88.392 78.776c-25.6 22.825-25.6 60.14 0 82.934l88.392 78.766c25.6 22.815 18.77 44.093-15.165 47.329l-117.217 11.1c-33.935 3.226-52.204 32.399-40.52 64.84l62.198 173.189c11.663 32.451-2.621 44.288-31.724 26.255l-138.281-85.514c-29.102-18.002-66.683-8.161-83.507 21.883l-50.094 89.395c-16.845 30.044-44.646 30.198-61.809 0.358l-46.551-80.916c-17.152-29.839-56.607-42.588-87.654-28.324l-81.889 37.622c-31.068 14.264-54.958-2.284-53.105-36.762l4.444-82.698c1.843-34.488-23.603-69.98-56.545-78.848l-79.084-21.268c-32.932-8.878-38.953-34.806-13.353-57.62l88.402-78.766c25.6-22.794 25.6-60.119 0-82.903l-88.402-78.807c-25.6-22.825-18.842-44.841 15.012-48.947l107.244-13.025c33.853-4.137 52.716-34.335 41.923-67.092l-55.020-166.84c-10.803-32.748 4.588-45.507 34.202-28.385l126.106 72.98c29.614 17.132 69.437 7.7 88.474-20.92l52.367-78.725c19.046-28.662 47.616-27.095 63.478 3.482l46.039 88.74c15.882 30.587 53.883 43.069 84.439 27.812l88.801-44.401c30.577-15.258 54.077 0.42 52.244 34.888l-4.444 82.739c-1.843 34.478 23.613 69.96 56.545 78.817l79.053 21.268c32.963 8.878 38.994 34.785 13.394 57.59zM563.2 220.375h-102.4v107.52h102.4v-107.52zM563.2 384.215h-102.4v266.24h102.4v-266.24z" />
<glyph unicode="&#xe64e;" d="M470.467 691.64c40.699 0 73.672 33.014 73.672 73.708 0 40.663-32.973 73.702-73.672 73.702s-73.702-33.039-73.702-73.702c0-40.689 33.004-73.708 73.702-73.708zM1027.927 383.37c-2.534 4.009-7.788 5.279-11.796 2.79-9.636-5.919-18.412-10.132-26.358-12.969 2.883 6.333 4.311 13.015 4.193 19.446 0 10.092-3.18 19.835-9.539 27.325-6.221 7.557-15.892 12.58-27.049 12.58-0.712-0.046-1.475-0.046-2.166-0.092-15.319-0.829-26.813-5.74-34.278-13.455-7.465-7.649-10.327-17.372-10.281-26.035 0-4.47 0.696-8.684 1.869-12.58 2.422-7.183 7.946-14.147 16.522-19.809 1.219-0.809 2.529-1.572 3.958-2.33-13.844 0.138-25.39 5.919-33.731 12.052-1.546 1.132-2.811 2.237-4.101 3.318 0.507 5.806 1.29 11.54 1.29 17.413 0 155.566-185.928 281.615-415.35 281.615-88.392 0-170.307-18.801-237.711-50.734-15.263 52.869-60.524 117.75-92.052 108.006 37.565-64.328 19.517-137.411 13.834-156.211-44.247-35.185-76.032-77.757-90.476-124.805h-30.771c-3.948 7.373-8.663 11.612-13.778 11.612-13.742 0-24.94-31.13-24.94-69.489 0-38.431 11.197-69.53 24.94-69.53 5.115 0 9.825 4.306 13.778 11.612h30.771c23.086-74.854 90.179-138.604 181.873-178.719v-128.143l51.082 30.618 51.098-30.618v95.872c38.723-8.11 79.708-12.692 122.353-12.692 54.221 0 105.856 7.255 153.344 20.065v-103.24l51.144 30.618 51.082-30.618v143.099c83.656 44.396 141.368 109.967 155.843 184.888 10.138-6.794 23.916-13.174 40.991-13.174 7.695 0 15.892 1.311 24.422 4.357 4.562 1.567 8.709 3.543 12.37 5.939 15.713 1.316 34.079 7.332 54.861 20.163 4.050 2.478 5.243 7.798 2.76 11.853zM616.248 559.002c-46.172 21.243-91.878 28.339-132.588 28.339-76.242 0.092-134.63-25.344-140.518-28.042-0.343-0.21-0.451-0.251-0.451-0.251-2.386-1.172-4.966-1.684-7.496-1.684-6.487 0-12.718 3.712-15.713 9.953-4.157 8.709-0.461 19.098 8.259 23.27 1.372 0.553 66.401 31.565 155.924 31.611 44.692 0 95.683-7.788 147.128-31.519 8.781-4.055 12.58-14.403 8.571-23.153-4.060-8.73-14.403-12.58-23.117-8.525zM964.475 368.21c-0.369 0-0.671 0-1.014 0-11.059 0-19.261 3.046-24.975 6.799-5.806 3.64-8.94 8.412-9.539 10.593-0.717 2.217-1.106 4.772-1.106 7.352 0.046 5.166 1.567 10.138 5.345 14.080 3.917 3.917 10.598 7.511 22.927 8.223l0.159 0.046c0.343 0 0.691 0 1.106 0 6.129-0.046 10.511-2.442 13.87-6.431 3.41-3.958 5.53-9.882 5.53-16.241-0.092-8.504-3.482-17.531-12.303-24.422z" />
<glyph unicode="&#xe64f;" d="M706.56 936.96h-389.12c-56.32 0-102.4-46.080-102.4-102.4v-798.72c0-56.32 46.080-102.4 102.4-102.4h389.12c56.32 0 102.4 46.080 102.4 102.4v798.72c0 56.32-46.080 102.4-102.4 102.4zM512-25.6c-39.578 0-71.68 22.917-71.68 51.2s32.102 51.2 71.68 51.2c39.557 0 71.68-22.917 71.68-51.2s-32.123-51.2-71.68-51.2zM727.040 128h-430.080v675.84h430.080v-675.84z" />
<glyph unicode="&#xe650;" d="M949.274 8.412h-869.427c-42.685 0-77.286 34.514-77.286 77.143v539.914c0 42.598 34.601 77.143 77.286 77.143h19.313v-57.856c0-21.299 17.3-38.574 38.641-38.574h38.641c21.34 0 38.646 17.275 38.646 38.574v57.856h57.953v77.128c0 42.598 34.601 77.128 77.286 77.128h328.453c42.691 0 77.266-34.529 77.266-77.128v-77.128h57.999v-57.856c0-21.299 17.28-38.574 38.625-38.574h38.63c21.371 0 38.656 17.275 38.656 38.574v57.856h19.313c42.685 0 77.286-34.545 77.286-77.143v-539.914c0.005-42.629-34.596-77.143-77.281-77.143zM331.003 316.923c0-21.284 17.3-38.543 38.641-38.543h77.286v-77.138c0-21.284 17.295-38.543 38.641-38.543h57.953c21.345 0 38.661 17.26 38.661 38.543v77.138h77.286c21.315 0 38.625 17.26 38.625 38.543v57.887c0 21.284-17.311 38.543-38.625 38.543h-77.286v77.143c0 21.299-17.316 38.559-38.661 38.559h-57.948c-21.345 0-38.641-17.26-38.641-38.559v-77.143h-77.292c-21.34 0-38.641-17.26-38.641-38.543v-57.887zM717.42 760.453c0 21.299-17.29 38.574-38.636 38.574h-328.453c-21.34 0-38.641-17.275-38.641-38.574v-57.841h405.734v57.841zM884.736 632.412h-25.492c-14.085 0-25.513 11.402-25.513 25.462v44.744h76.513v-44.744c0-14.060-11.392-25.462-25.508-25.462zM169.871 632.412h-25.498c-14.085 0-25.503 11.402-25.503 25.462v44.744h76.498v-44.744c0.005-14.060-11.407-25.462-25.498-25.462z" />
<glyph unicode="&#xe651;" d="M879.119 944.64v-73.155h-72.397v73.155h-579.22v-73.155h-72.397v73.155h-72.412v-1024h868.849v1024h-72.422zM227.502-6.211h-72.397v73.124h72.397v-73.124zM227.502 213.217h-72.397v73.149h72.397v-73.149zM227.502 432.64h-72.397v73.155h72.397v-73.155zM227.502 652.063h-72.397v73.155h72.397v-73.155zM734.331-5.637h-434.422v364.549h434.422v-364.549zM734.331 506.337h-434.422v364.605h434.422v-364.605zM879.119-6.211h-72.397v73.124h72.397v-73.124zM879.119 213.217h-72.397v73.149h72.397v-73.149zM879.119 432.64h-72.397v73.155h72.397v-73.155zM879.119 652.063h-72.397v73.155h72.397v-73.155z" />
<glyph unicode="&#xe652;" d="M768 138.25h-665.6v460.79h132.864c0 0 35.297 45.916 111.094 102.4h-295.158c-28.283 0-51.2-22.927-51.2-51.2v-563.2c0-28.303 22.917-51.2 51.2-51.2h768c28.283 0 51.2 22.897 51.2 51.2v191.816l-102.4-84.244v-56.361zM684.145 494.080v-181.76l339.855 266.271-339.855 255.969v-160.287c-412.785 0.010-412.785-408.023-412.785-408.023 116.818 191.908 188.723 227.83 412.785 227.83z" />
<glyph unicode="&#xe653;" d="M474.511 130.56c54.047 0 97.833-41.411 97.833-96.256 0-54.876-43.786-99.348-97.833-99.348-54.077 0-94.874 44.472-94.874 99.348 0 54.845 40.806 96.256 94.874 96.256zM152.801 910.961c132.495 0 129.925-129.505 129.925-129.505l98.939-457.308h453.693l68.219 330.086c20.961 91.587 77.036 51.589 77.036 51.589 64.236 0 33.075-125.153 33.075-125.153s-61.921-223.826-82.022-321.761c0-36.014-20.695-65.167-56.197-65.167h-550.072c-35.461 0-64.174 29.164-64.174 65.167 0 28.744-100.116 525.742-100.116 525.742l-99.512 0.952c-70.287 0-64.215 67.779-64.215 67.779 4.024 69.274 63.724 57.344 63.724 57.344l91.699 0.236zM381.665 324.147h453.693zM795.679 130.56c54.077 0 97.874-41.411 97.874-96.256 0-54.876-43.786-99.348-97.874-99.348-54.006 0-94.853 44.472-94.853 99.348 0 54.845 40.847 96.256 94.853 96.256zM478.024 454.523c17.715 0 32.123-14.592 32.123-32.604s-14.408-32.604-32.123-32.604c-17.746 0-32.154 14.592-32.154 32.604 0 18.002 14.408 32.604 32.154 32.604zM606.505 454.523c17.715 0 32.092-14.592 32.092-32.604s-14.367-32.604-32.092-32.604c-17.746 0-32.123 14.592-32.123 32.604 0 18.002 14.367 32.604 32.123 32.604zM734.976 454.523c17.705 0 32.092-14.592 32.092-32.604s-14.377-32.604-32.092-32.604c-17.746 0-32.154 14.592-32.154 32.604 0.010 18.002 14.408 32.604 32.154 32.604zM413.788 584.929c17.715 0 32.082-14.602 32.082-32.604 0-18.022-14.367-32.604-32.082-32.604-17.746 0-32.154 14.582-32.154 32.604 0 18.002 14.397 32.604 32.154 32.604zM542.259 584.929c17.715 0 32.123-14.602 32.123-32.604 0-18.022-14.397-32.604-32.123-32.604-17.746 0-32.123 14.582-32.123 32.604 0 18.002 14.377 32.604 32.123 32.604zM670.74 584.929c17.705 0 32.092-14.602 32.092-32.604 0-18.022-14.377-32.604-32.092-32.604-17.746 0-32.154 14.582-32.154 32.604 0 18.002 14.408 32.604 32.154 32.604zM799.222 584.929c17.705 0 32.082-14.602 32.082-32.604 0-18.022-14.367-32.604-32.082-32.604-17.746 0-32.154 14.582-32.154 32.604 0 18.002 14.397 32.604 32.154 32.604zM734.976 715.336c17.705 0 32.092-14.592 32.092-32.604s-14.377-32.604-32.092-32.604c-17.746 0-32.154 14.602-32.154 32.604s14.408 32.604 32.154 32.604zM606.505 715.336c17.715 0 32.092-14.592 32.092-32.604s-14.367-32.604-32.092-32.604c-17.746 0-32.123 14.602-32.123 32.604s14.367 32.604 32.123 32.604zM478.024 715.336c17.715 0 32.123-14.592 32.123-32.604s-14.408-32.604-32.123-32.604c-17.746 0-32.154 14.602-32.154 32.604s14.408 32.604 32.154 32.604z" />
<glyph unicode="&#xe654;" d="M273.9-46.080h102.4l229.765 409.6h264.335c0 0 153.6 0 153.6 71.68s-153.6 71.68-153.6 71.68h-264.335l-229.765 409.6h-102.4l127.365-409.6h-183.644l-115.22 102.4h-102.4l81.92-174.080-81.92-174.080h102.4l115.22 102.4h183.644l-127.365-409.6z" />
<glyph unicode="&#xe655;" d="M903.343 269.975c-49.071-79.372-205.684-137.402-391.343-137.402-185.635 0-342.272 58.031-391.319 137.402-10.403 16.791-15.953 7.82-15.953-0.535v-116.48c0-112.791 182.342-229.76 407.273-229.76 224.954 0 407.273 116.969 407.273 229.76v116.48c0 8.355-5.551 17.327-15.93 0.535zM904.006 567.575c-48.268-70.167-205.498-121.6-392.006-121.6-186.473 0-343.727 51.433-392.006 121.6-9.949 14.464-15.267 6.609-15.267 0.058v-137.065c0-102.551 182.342-185.67 407.273-185.67 224.954 0 407.273 83.119 407.273 185.67v137.065c0 6.551-5.318 14.406-15.267-0.058zM512 947.2c-224.931 0-407.273-68.573-407.273-153.158v-73.286c0-89.716 182.342-162.444 407.273-162.444 224.954 0 407.273 72.727 407.273 162.444v73.286c0 84.585-182.319 153.158-407.273 153.158z" />
<glyph unicode="&#xe656;" d="M1010.916 418.111l-456.488 456.897c-23.359 24.201-61.531 24.201-84.855 0l-456.476-456.897c-23.347-24.201-14.632-44.009 19.354-44.009h95.152v-350.891c0-25.384 1.081-45.955 46.899-45.955h221.548v351.903h231.856v-351.915h232.596c34.941 0 35.874 20.582 35.874 45.955v350.891h95.141c34.008 0 42.724 19.82 19.399 44.021z" />
<glyph unicode="&#xe657;" d="M940.020 783.443c-99.53 91.338-260.894 91.338-360.436 0l-67.584-62.035-67.608 62.035c-99.519 91.338-260.87 91.338-360.412 0-111.973-102.769-111.973-269.383 0-372.153l428.020-392.835 428.020 392.823c111.961 102.781 111.961 269.395 0 372.164z" />
<glyph unicode="&#xe658;" d="M511.978 947.2c-282.735 0-511.978-229.254-511.978-512 0-282.769 229.242-512 511.978-512 282.78 0 512 229.231 512 512 0.011 282.746-229.22 512-512 512zM511.978 34.504c-221.262 0-400.673 179.4-400.673 400.696 0 221.306 179.411 400.696 400.673 400.696 221.329 0 400.696-179.389 400.696-400.696 0.011-221.295-179.367-400.696-400.696-400.696zM550.957 724.591h-77.935v-305.542l189.518-189.485 55.096 55.085-166.678 166.689z" />
<glyph unicode="&#xe659;" d="M0 48.356c141.289 249.719 342.027 273.761 612.978 273.761v-247.933l411.022 380.632-411.022 367.229v-219.967c-499.2 0-612.978-553.722-612.978-553.722z" />
</font>
</defs>
</svg>
